<mxfile host="Electron" modified="2023-06-19T21:36:58.415Z" agent="Mozilla/5.0 (Windows NT 10.0; Win64; x64) AppleWebKit/537.36 (KHTML, like Gecko) draw.io/21.5.0 Chrome/112.0.5615.204 Electron/24.5.1 Safari/537.36" etag="h_bV9xJZL65sLCyQhaLw" version="21.5.0" type="device">
  <diagram name="Page-1" id="V5jDszUlmnTWUOPBSBF2">
    <mxGraphModel dx="536" dy="364" grid="1" gridSize="10" guides="1" tooltips="1" connect="1" arrows="1" fold="1" page="1" pageScale="1" pageWidth="827" pageHeight="1169" math="1" shadow="0">
      <root>
        <mxCell id="0" />
        <mxCell id="1" parent="0" />
        <mxCell id="P6_PLEU_mZZHy8y2LjJ5-1" value="" style="shape=waypoint;sketch=0;fillStyle=solid;size=6;pointerEvents=1;points=[];fillColor=none;resizable=0;rotatable=0;perimeter=centerPerimeter;snapToPoint=1;" parent="1" vertex="1">
          <mxGeometry x="230" y="590" width="20" height="20" as="geometry" />
        </mxCell>
        <mxCell id="P6_PLEU_mZZHy8y2LjJ5-2" value="" style="shape=waypoint;sketch=0;fillStyle=solid;size=6;pointerEvents=1;points=[];fillColor=none;resizable=0;rotatable=0;perimeter=centerPerimeter;snapToPoint=1;" parent="1" vertex="1">
          <mxGeometry x="310" y="590" width="20" height="20" as="geometry" />
        </mxCell>
        <mxCell id="P6_PLEU_mZZHy8y2LjJ5-3" value="" style="shape=waypoint;sketch=0;fillStyle=solid;size=6;pointerEvents=1;points=[];fillColor=none;resizable=0;rotatable=0;perimeter=centerPerimeter;snapToPoint=1;" parent="1" vertex="1">
          <mxGeometry x="390" y="550" width="20" height="20" as="geometry" />
        </mxCell>
        <mxCell id="P6_PLEU_mZZHy8y2LjJ5-4" value="" style="shape=waypoint;sketch=0;fillStyle=solid;size=6;pointerEvents=1;points=[];fillColor=none;resizable=0;rotatable=0;perimeter=centerPerimeter;snapToPoint=1;" parent="1" vertex="1">
          <mxGeometry x="430" y="470" width="20" height="20" as="geometry" />
        </mxCell>
        <mxCell id="P6_PLEU_mZZHy8y2LjJ5-5" value="" style="endArrow=none;dashed=1;html=1;dashPattern=1 3;strokeWidth=2;rounded=0;startArrow=classic;startFill=1;" parent="1" target="P6_PLEU_mZZHy8y2LjJ5-1" edge="1">
          <mxGeometry width="50" height="50" relative="1" as="geometry">
            <mxPoint x="200" y="540" as="sourcePoint" />
            <mxPoint x="190" y="520" as="targetPoint" />
          </mxGeometry>
        </mxCell>
        <mxCell id="P6_PLEU_mZZHy8y2LjJ5-6" value="" style="endArrow=none;dashed=1;html=1;dashPattern=1 3;strokeWidth=2;rounded=0;startArrow=classic;startFill=1;" parent="1" source="P6_PLEU_mZZHy8y2LjJ5-4" edge="1">
          <mxGeometry width="50" height="50" relative="1" as="geometry">
            <mxPoint x="370" y="600" as="sourcePoint" />
            <mxPoint x="400" y="430" as="targetPoint" />
          </mxGeometry>
        </mxCell>
        <mxCell id="P6_PLEU_mZZHy8y2LjJ5-7" value="" style="endArrow=classic;html=1;rounded=0;" parent="1" source="P6_PLEU_mZZHy8y2LjJ5-4" target="P6_PLEU_mZZHy8y2LjJ5-3" edge="1">
          <mxGeometry width="50" height="50" relative="1" as="geometry">
            <mxPoint x="370" y="600" as="sourcePoint" />
            <mxPoint x="420" y="550" as="targetPoint" />
          </mxGeometry>
        </mxCell>
        <mxCell id="P6_PLEU_mZZHy8y2LjJ5-8" value="" style="endArrow=classic;html=1;rounded=0;fillColor=#e51400;strokeColor=#B20000;" parent="1" source="P6_PLEU_mZZHy8y2LjJ5-3" target="P6_PLEU_mZZHy8y2LjJ5-2" edge="1">
          <mxGeometry width="50" height="50" relative="1" as="geometry">
            <mxPoint x="370" y="600" as="sourcePoint" />
            <mxPoint x="420" y="550" as="targetPoint" />
          </mxGeometry>
        </mxCell>
        <mxCell id="P6_PLEU_mZZHy8y2LjJ5-9" value="" style="endArrow=classic;html=1;rounded=0;entryX=0.517;entryY=0.367;entryDx=0;entryDy=0;entryPerimeter=0;" parent="1" source="P6_PLEU_mZZHy8y2LjJ5-2" target="P6_PLEU_mZZHy8y2LjJ5-1" edge="1">
          <mxGeometry width="50" height="50" relative="1" as="geometry">
            <mxPoint x="370" y="600" as="sourcePoint" />
            <mxPoint x="420" y="550" as="targetPoint" />
          </mxGeometry>
        </mxCell>
        <mxCell id="P6_PLEU_mZZHy8y2LjJ5-10" value="&lt;h2&gt;&lt;font color=&quot;#a20025&quot;&gt;\(e \in F\)&lt;/font&gt;&lt;/h2&gt;" style="text;html=1;align=center;verticalAlign=middle;whiteSpace=wrap;rounded=0;" parent="1" vertex="1">
          <mxGeometry x="340" y="582.5" width="101" height="35" as="geometry" />
        </mxCell>
        <mxCell id="P6_PLEU_mZZHy8y2LjJ5-11" value="&lt;h2&gt;G&lt;/h2&gt;" style="text;html=1;strokeColor=none;fillColor=none;align=center;verticalAlign=middle;whiteSpace=wrap;rounded=0;" parent="1" vertex="1">
          <mxGeometry x="190" y="460" width="60" height="30" as="geometry" />
        </mxCell>
      </root>
    </mxGraphModel>
  </diagram>
</mxfile>
